<?xml version="1.0" encoding="UTF-8"?>
<svg version="1.1" xmlns="http://www.w3.org/2000/svg" width="225" height="225">
<path d="M0 0 C74.25 0 148.5 0 225 0 C225 74.25 225 148.5 225 225 C150.75 225 76.5 225 0 225 C0 150.75 0 76.5 0 0 Z " fill="#FCFCFC" transform="translate(0,0)"/>
<path d="M0 0 C0.94746094 -0.01933594 1.89492187 -0.03867188 2.87109375 -0.05859375 C6.39981073 0.59183739 7.38316686 1.60379566 9.5625 4.4375 C10.06420898 7.765625 10.06420898 7.765625 10.05859375 11.6875 C10.06004898 12.38262695 10.06150421 13.07775391 10.06300354 13.79394531 C10.0613477 15.25980838 10.04982135 16.72568939 10.02905273 18.19140625 C10.0000913 20.43044147 10.00844895 22.6671079 10.02148438 24.90625 C10.01524644 26.3333448 10.00685506 27.76043214 9.99609375 29.1875 C9.98634521 30.48171875 9.97659668 31.7759375 9.96655273 33.109375 C9.54412219 36.58887544 9.08587771 38.04550966 6.5625 40.4375 C3.49609375 40.93359375 3.49609375 40.93359375 0 40.875 C-1.15628906 40.87371094 -2.31257812 40.87242187 -3.50390625 40.87109375 C-4.47199219 40.72800781 -5.44007813 40.58492187 -6.4375 40.4375 C-8.87121802 36.78692297 -8.74363523 34.03510582 -8.73828125 29.8125 C-8.74256638 29.06919434 -8.7468515 28.32588867 -8.75126648 27.56005859 C-8.75700451 25.98991921 -8.75751391 24.41975325 -8.75317383 22.84960938 C-8.75001139 20.44615451 -8.77348617 18.0439279 -8.79882812 15.640625 C-8.80110093 14.11458489 -8.8018047 12.58854146 -8.80078125 11.0625 C-8.81459587 9.98427979 -8.81459587 9.98427979 -8.82868958 8.88427734 C-8.78269788 3.93130241 -8.78269788 3.93130241 -7.07470703 1.48803711 C-4.69528522 -0.03875264 -2.80508173 0.00380608 0 0 Z " fill="#121212" transform="translate(152.4375,104.5625)"/>
<path d="M0 0 C4.29 0 8.58 0 13 0 C17.45879042 4.45879042 17.45879042 4.45879042 17.53013611 9.40760803 C17.51890213 10.09938644 17.50766815 10.79116486 17.49609375 11.50390625 C17.49754898 12.22360092 17.49900421 12.94329559 17.50050354 13.68479919 C17.4988476 15.20193543 17.48732026 16.71908899 17.46655273 18.23608398 C17.4375499 20.55850441 17.4459572 22.87864753 17.45898438 25.20117188 C17.4527479 26.67709442 17.44435766 28.15300978 17.43359375 29.62890625 C17.43652939 30.32270889 17.43946503 31.01651154 17.44248962 31.7313385 C17.35826022 36.03138498 17.20701601 36.79298399 14 40 C9.38 40 4.76 40 0 40 C0 26.8 0 13.6 0 0 Z " fill="#0D0D0D" transform="translate(112,105)"/>
<path d="M0 0 C4.29 0 8.58 0 13 0 C17 4 17 4 17.48583984 5.98291016 C17.47351318 7.00070557 17.47351318 7.00070557 17.4609375 8.0390625 C17.45707031 8.78414062 17.45320313 9.52921875 17.44921875 10.296875 C17.42472656 11.06515625 17.40023437 11.8334375 17.375 12.625 C17.37371094 13.40101562 17.37242188 14.17703125 17.37109375 14.9765625 C17.28137401 20.71862599 17.28137401 20.71862599 15 23 C14.56088834 27.72045029 15.66666916 31.50000843 17 36 C17 37.32 17 38.64 17 40 C15.35 40 13.7 40 12 40 C11.49363393 38.25183142 10.99515381 36.50137737 10.5 34.75 C10.2215625 33.77546875 9.943125 32.8009375 9.65625 31.796875 C9 29 9 29 9 25 C8.01 25 7.02 25 6 25 C6 30.28 6 35.56 6 41 C4.02 41 2.04 41 0 41 C0 27.47 0 13.94 0 0 Z " fill="#1B1B1B" transform="translate(88,59)"/>
<path d="M0 0 C1.65 0 3.3 0 5 0 C5.33 11.22 5.66 22.44 6 34 C7.98 34.33 9.96 34.66 12 35 C12 23.78 12 12.56 12 1 C13.65 1 15.3 1 17 1 C17.07424001 5.91126203 17.12864411 10.82219634 17.16479492 15.73388672 C17.17986754 17.40419201 17.2003292 19.07445781 17.22631836 20.74462891 C17.26276973 23.14756013 17.27974131 25.54996744 17.29296875 27.953125 C17.30845261 28.69806213 17.32393646 29.44299927 17.33988953 30.21051025 C17.34092323 33.40579308 17.19533515 35.64396608 15.64379883 38.47192383 C13.29745306 40.65308797 11.6548228 40.5011053 8.5 40.4375 C7.5409375 40.43621094 6.581875 40.43492187 5.59375 40.43359375 C3 40 3 40 1.35620117 38.99707031 C-0.81592045 35.79851858 -0.36572081 32.34322622 -0.29296875 28.61328125 C-0.28872391 27.79627243 -0.28447906 26.97926361 -0.28010559 26.13749695 C-0.26331691 23.52882893 -0.22566519 20.92093438 -0.1875 18.3125 C-0.17245337 16.54363095 -0.15876492 14.77474979 -0.14648438 13.00585938 C-0.11341286 8.67027504 -0.0616299 4.33526864 0 0 Z " fill="#050505" transform="translate(90,105)"/>
<path d="M0 0 C0.86625 -0.00773437 1.7325 -0.01546875 2.625 -0.0234375 C5 0.375 5 0.375 6.80078125 1.63671875 C8.92699656 4.71869208 8.17925708 7.73010613 8 11.375 C6.02 11.375 4.04 11.375 2 11.375 C2 9.395 2 7.415 2 5.375 C0.68 5.705 -0.64 6.035 -2 6.375 C-2.33 9.675 -2.66 12.975 -3 16.375 C-2.29875 16.6225 -1.5975 16.87 -0.875 17.125 C2.53321645 18.60683324 5.13731585 19.97441808 8 22.375 C8.69140625 25.94140625 8.69140625 25.94140625 8.5625 29.9375 C8.56056641 30.60974609 8.55863281 31.28199219 8.55664062 31.97460938 C8.48168923 34.77001879 8.28395433 36.90983798 6.8125 39.3203125 C4.28008621 40.79391535 2.35033797 40.73792196 -0.5625 40.6875 C-1.53316406 40.68363281 -2.50382812 40.67976563 -3.50390625 40.67578125 C-6 40.375 -6 40.375 -8 38.375 C-8.125 34.75 -8.125 34.75 -8 31.375 C-6.35 31.375 -4.7 31.375 -3 31.375 C-3 32.695 -3 34.015 -3 35.375 C-1.35 35.375 0.3 35.375 2 35.375 C2 31.745 2 28.115 2 24.375 C1.0925 24.106875 0.185 23.83875 -0.75 23.5625 C-5.77128199 21.72780081 -5.77128199 21.72780081 -8 19.375 C-8.37980738 16.55186485 -8.51500992 14.18535976 -8.4375 11.375 C-8.44458984 10.65054688 -8.45167969 9.92609375 -8.45898438 9.1796875 C-8.42364327 6.23278321 -8.35015024 3.94469781 -6.78515625 1.3984375 C-4.41786416 0.0412591 -2.72028567 -0.02428826 0 0 Z " fill="#141414" transform="translate(61,104.625)"/>
<path d="M0 0 C4.62 0 9.24 0 14 0 C14 1.98 14 3.96 14 6 C11.36 6 8.72 6 6 6 C6 9.63 6 13.26 6 17 C8.31 17 10.62 17 13 17 C13 18.98 13 20.96 13 23 C10.69 23 8.38 23 6 23 C6 26.96 6 30.92 6 35 C8.64 35 11.28 35 14 35 C14 36.98 14 38.96 14 41 C9.38 41 4.76 41 0 41 C0 27.47 0 13.94 0 0 Z " fill="#272727" transform="translate(130,59)"/>
<path d="M0 0 C4.62 0 9.24 0 14 0 C14 1.98 14 3.96 14 6 C11.36 6 8.72 6 6 6 C6 9.63 6 13.26 6 17 C8.31 17 10.62 17 13 17 C13 18.98 13 20.96 13 23 C10.69 23 8.38 23 6 23 C6 26.96 6 30.92 6 35 C8.64 35 11.28 35 14 35 C14 36.98 14 38.96 14 41 C9.38 41 4.76 41 0 41 C0 27.47 0 13.94 0 0 Z " fill="#262626" transform="translate(70,59)"/>
<path d="M0 0 C1.32 0 2.64 0 4 0 C5.32 3.63 6.64 7.26 8 11 C8.474375 9.55625 8.94875 8.1125 9.4375 6.625 C10.19397017 4.32269949 10.91608814 2.16782371 12 0 C13.65 0 15.3 0 17 0 C15.32616835 8.7236167 15.32616835 8.7236167 14.234375 12.99609375 C12.02120274 21.68604955 11.33208075 30.07962397 11 39 C9.35 39 7.7 39 6 39 C5.98582031 38.16082031 5.97164063 37.32164063 5.95703125 36.45703125 C5.52610405 25.59067779 3.21635 15.52478341 0.44311523 5.03027344 C0 3 0 3 0 0 Z " fill="#0D0D0D" transform="translate(109,60)"/>
<path d="M0 0 C5.28 0 10.56 0 16 0 C16 1.65 16 3.3 16 5 C14.35 5 12.7 5 11 5 C11 16.55 11 28.1 11 40 C9.02 40 7.04 40 5 40 C5 28.45 5 16.9 5 5 C3.35 5 1.7 5 0 5 C0 3.35 0 1.7 0 0 Z " fill="#1F1F1F" transform="translate(71,105)"/>
<path d="M0 0 C4.29 0 8.58 0 13 0 C13 1.32 13 2.64 13 4 C10.36 4 7.72 4 5 4 C5 8.29 5 12.58 5 17 C7.31 17 9.62 17 12 17 C12 18.32 12 19.64 12 21 C9.69 21 7.38 21 5 21 C5 26.94 5 32.88 5 39 C3.35 39 1.7 39 0 39 C0 26.13 0 13.26 0 0 Z " fill="#060606" transform="translate(53,60)"/>
<path d="M0 0 C1.98 0 3.96 0 6 0 C6 13.2 6 26.4 6 40 C4.02 40 2.04 40 0 40 C0 26.8 0 13.6 0 0 Z " fill="#232323" transform="translate(133,105)"/>
<path d="M0 0 C1.65 0 3.3 0 5 0 C5 11.55 5 23.1 5 35 C7.31 35 9.62 35 12 35 C12 36.32 12 37.64 12 39 C8.04 39 4.08 39 0 39 C0 26.13 0 13.26 0 0 Z " fill="#060606" transform="translate(149,60)"/>
<path d="M0 0 C1.98 0 3.96 0 6 0 C7 1 7 1 7.11352539 3.77563477 C7.10828857 4.98533936 7.10305176 6.19504395 7.09765625 7.44140625 C7.09443359 8.74658203 7.09121094 10.05175781 7.08789062 11.39648438 C7.07953401 12.7851569 7.07106905 14.17382877 7.0625 15.5625 C7.05748666 16.95507656 7.05292347 18.34765481 7.04882812 19.74023438 C7.03699434 23.1601987 7.0205088 26.58007844 7 30 C4.69 30 2.38 30 0 30 C0 20.1 0 10.2 0 0 Z " fill="#DADADA" transform="translate(117,110)"/>
<path d="M0 0 C2.5 0.125 2.5 0.125 3.5 1.125 C3.58775605 3.27058827 3.60695219 5.41904421 3.59765625 7.56640625 C3.59443359 8.87158203 3.59121094 10.17675781 3.58789062 11.52148438 C3.57953401 12.9101569 3.57106905 14.29882877 3.5625 15.6875 C3.55748666 17.08007656 3.55292347 18.47265481 3.54882812 19.86523438 C3.53699434 23.2851987 3.5205088 26.70507844 3.5 30.125 C1.19 30.125 -1.12 30.125 -3.5 30.125 C-3.52465746 26.0132744 -3.54283959 21.90157722 -3.55493164 17.78979492 C-3.5599708 16.39004772 -3.56680216 14.9903058 -3.57543945 13.59057617 C-3.5875232 11.58254223 -3.59269807 9.57447043 -3.59765625 7.56640625 C-3.60289307 6.35670166 -3.60812988 5.14699707 -3.61352539 3.90063477 C-3.46106472 0.17305324 -3.46106472 0.17305324 0 0 Z " fill="#F4F4F4" transform="translate(152.5,109.875)"/>
<path d="M0 0 C2.87112202 0.2035497 3.99012007 0.55632505 6.5 2.125 C8.61006839 5.55386114 8.62491523 7.60470351 8 11.5625 C5.55804571 14.93814269 4.0769435 16.31570045 0 17.25 C-4.32475043 16.25891136 -5.64743715 14.22973032 -8 10.5625 C-8.75751635 7.11159219 -8.16536738 5.87256384 -6.5 2.75 C-3.88255413 0.45973487 -3.29397057 0.17207309 0 0 Z " fill="#0E0E0E" transform="translate(180,67.4375)"/>
<path d="M0 0 C1.98 0 3.96 0 6 0 C6.02685938 2.14576637 6.04633088 4.29162645 6.0625 6.4375 C6.07410156 7.63246094 6.08570312 8.82742187 6.09765625 10.05859375 C6 13 6 13 5 14 C3.35 14 1.7 14 0 14 C0 9.38 0 4.76 0 0 Z " fill="#E3E3E3" transform="translate(94,65)"/>
<path d="M0 0 C2.875 -0.125 2.875 -0.125 6 0 C8 2 8 2 8.25 4.9375 C8 8 8 8 6 11 C3.4375 11.25 3.4375 11.25 1 11 C0 10 0 10 -0.09765625 7.71484375 C-0.08605469 6.79832031 -0.07445312 5.88179687 -0.0625 4.9375 C-0.05347656 4.01839844 -0.04445312 3.09929687 -0.03515625 2.15234375 C-0.02355469 1.44207031 -0.01195312 0.73179687 0 0 Z " fill="#868686" transform="translate(141,154)"/>
<path d="M0 0 C4.55555556 0.55555556 4.55555556 0.55555556 6 2 C6.04092937 4.33297433 6.04241723 6.66705225 6 9 C4.35 9.66 2.7 10.32 1 11 C-0.5 9.875 -0.5 9.875 -2 8 C-2.3125 4.9375 -2.3125 4.9375 -2 2 C-1.34 1.34 -0.68 0.68 0 0 Z " fill="#B1B1B1" transform="translate(156,154)"/>
<path d="M0 0 C0.66 0 1.32 0 2 0 C2.66 1.98 3.32 3.96 4 6 C4.66 6 5.32 6 6 6 C6.66 4.02 7.32 2.04 8 0 C8.33 0 8.66 0 9 0 C9 3.3 9 6.6 9 10 C8.34 9.01 7.68 8.02 7 7 C6.67 7.66 6.34 8.32 6 9 C5.34 9 4.68 9 4 9 C3.67 8.34 3.34 7.68 3 7 C2.67 7.99 2.34 8.98 2 10 C1.34 10 0.68 10 0 10 C0 6.7 0 3.4 0 0 Z " fill="#707070" transform="translate(52,154)"/>
<path d="M0 0 C2.31 0 4.62 0 7 0 C7 0.33 7 0.66 7 1 C5.35 1 3.7 1 2 1 C2 1.99 2 2.98 2 4 C3.32 4 4.64 4 6 4 C6 4.66 6 5.32 6 6 C4.68 6 3.36 6 2 6 C2 6.99 2 7.98 2 9 C3.65 9 5.3 9 7 9 C7 9.66 7 10.32 7 11 C5.00045254 11.04254356 2.99958364 11.04080783 1 11 C0 10 0 10 -0.09765625 7.71484375 C-0.08605469 6.79832031 -0.07445313 5.88179687 -0.0625 4.9375 C-0.05347656 4.01839844 -0.04445313 3.09929687 -0.03515625 2.15234375 C-0.02355469 1.44207031 -0.01195313 0.73179687 0 0 Z " fill="#8B8B8B" transform="translate(81,154)"/>
<path d="M0 0 C0.66 0 1.32 0 2 0 C2.33 1.32 2.66 2.64 3 4 C4.32 2.68 5.64 1.36 7 0 C6.79375 0.721875 6.5875 1.44375 6.375 2.1875 C5.94047789 5.44641585 6.58319331 7.08304504 8 10 C6 10 6 10 3.875 8 C3.25625 7.34 2.6375 6.68 2 6 C2 7.32 2 8.64 2 10 C1.34 10 0.68 10 0 10 C0 6.7 0 3.4 0 0 Z " fill="#7A7A7A" transform="translate(72,154)"/>
<path d="M0 0 C1.32 0.33 2.64 0.66 4 1 C4 3.31 4 5.62 4 8 C2.68 8 1.36 8 0 8 C0 5.36 0 2.72 0 0 Z " fill="#F8F8F8" transform="translate(143,155)"/>
<path d="M0 0 C1.98 0 3.96 0 6 0 C4.68 0.33 3.36 0.66 2 1 C2 2.32 2 3.64 2 5 C3.32 5.33 4.64 5.66 6 6 C4.68 6 3.36 6 2 6 C2 7.32 2 8.64 2 10 C1.34 10 0.68 10 0 10 C0 6.7 0 3.4 0 0 Z " fill="#6F6F6F" transform="translate(103,154)"/>
<path d="M0 0 C0.99 0.33 1.98 0.66 3 1 C3 3.97 3 6.94 3 10 C2.34 10 1.68 10 1 10 C-1.42857143 3.71428571 -1.42857143 3.71428571 0 0 Z " fill="#F2F2F2" transform="translate(78,153)"/>
<path d="M0 0 C0.33 0 0.66 0 1 0 C1 1.98 1 3.96 1 6 C1.66 6 2.32 6 3 6 C3 7.65 3 9.3 3 11 C1.68 10.67 0.36 10.34 -1 10 C-0.67 6.7 -0.34 3.4 0 0 Z " fill="#D1D1D1" transform="translate(61,154)"/>
<path d="M0 0 C1.65 0 3.3 0 5 0 C5 1.32 5 2.64 5 4 C3.35 4 1.7 4 0 4 C0 2.68 0 1.36 0 0 Z " fill="#CFCFCF" transform="translate(105,155)"/>
</svg>
